<?xml version="1.0" encoding="UTF-8" standalone="no"?><!-- Generator: Gravit.io --><svg xmlns="http://www.w3.org/2000/svg" xmlns:xlink="http://www.w3.org/1999/xlink" style="isolation:isolate" viewBox="0 0 500 171.1" width="500pt" height="171.1pt"><defs><clipPath id="_clipPath_yaa2iu9DLh0vI2piHkadTujhVB9iDBRo"><rect width="500" height="171.1"/></clipPath></defs><g clip-path="url(#_clipPath_yaa2iu9DLh0vI2piHkadTujhVB9iDBRo)"><g><path d="M 9.442 -0.28 L 490.558 -0.28 C 495.769 -0.28 500 3.951 500 9.161 L 500 161.939 C 500 167.149 495.769 171.38 490.558 171.38 L 9.442 171.38 C 4.231 171.38 0 167.149 0 161.939 L 0 9.161 C 0 3.951 4.231 -0.28 9.442 -0.28 Z" style="stroke:none;fill:#000000;stroke-miterlimit:10;"/><path d=" M 47.078 117.247 L 47.078 52.91 L 63.853 52.91 L 81.571 96.137 L 82.325 96.137 L 100.043 52.91 L 116.818 52.91 L 116.818 117.247 L 103.624 117.247 L 103.624 75.372 L 103.09 75.372 L 86.44 116.933 L 77.456 116.933 L 60.806 75.215 L 60.272 75.215 L 60.272 117.247 L 47.078 117.247 Z  M 141.51 118.158 L 141.51 118.158 L 141.51 118.158 Q 136.892 118.158 133.279 116.54 L 133.279 116.54 L 133.279 116.54 Q 129.667 114.923 127.577 111.734 L 127.577 111.734 L 127.577 111.734 Q 125.488 108.545 125.488 103.77 L 125.488 103.77 L 125.488 103.77 Q 125.488 99.749 126.965 97.016 L 126.965 97.016 L 126.965 97.016 Q 128.441 94.283 130.986 92.618 L 130.986 92.618 L 130.986 92.618 Q 133.531 90.953 136.782 90.105 L 136.782 90.105 L 136.782 90.105 Q 140.033 89.257 143.615 88.911 L 143.615 88.911 L 143.615 88.911 Q 147.824 88.472 150.4 88.079 L 150.4 88.079 L 150.4 88.079 Q 152.976 87.686 154.138 86.901 L 154.138 86.901 L 154.138 86.901 Q 155.301 86.115 155.301 84.576 L 155.301 84.576 L 155.301 84.388 L 155.301 84.388 Q 155.301 81.403 153.432 79.77 L 153.432 79.77 L 153.432 79.77 Q 151.562 78.136 148.138 78.136 L 148.138 78.136 L 148.138 78.136 Q 144.526 78.136 142.389 79.723 L 142.389 79.723 L 142.389 79.723 Q 140.253 81.309 139.562 83.697 L 139.562 83.697 L 127.185 82.691 L 127.185 82.691 Q 128.127 78.293 130.892 75.073 L 130.892 75.073 L 130.892 75.073 Q 133.656 71.853 138.038 70.11 L 138.038 70.11 L 138.038 70.11 Q 142.421 68.366 148.201 68.366 L 148.201 68.366 L 148.201 68.366 Q 152.222 68.366 155.913 69.309 L 155.913 69.309 L 155.913 69.309 Q 159.605 70.251 162.479 72.23 L 162.479 72.23 L 162.479 72.23 Q 165.353 74.209 167.018 77.304 L 167.018 77.304 L 167.018 77.304 Q 168.683 80.398 168.683 84.702 L 168.683 84.702 L 168.683 117.247 L 155.992 117.247 L 155.992 110.556 L 155.615 110.556 L 155.615 110.556 Q 154.453 112.818 152.505 114.53 L 152.505 114.53 L 152.505 114.53 Q 150.557 116.242 147.824 117.2 L 147.824 117.2 L 147.824 117.2 Q 145.091 118.158 141.51 118.158 Z  M 145.342 108.922 L 145.342 108.922 L 145.342 108.922 Q 148.295 108.922 150.557 107.744 L 150.557 107.744 L 150.557 107.744 Q 152.819 106.566 154.107 104.556 L 154.107 104.556 L 154.107 104.556 Q 155.395 102.545 155.395 100.001 L 155.395 100.001 L 155.395 94.88 L 155.395 94.88 Q 154.767 95.289 153.683 95.618 L 153.683 95.618 L 153.683 95.618 Q 152.599 95.948 151.248 96.215 L 151.248 96.215 L 151.248 96.215 Q 149.897 96.482 148.547 96.686 L 148.547 96.686 L 148.547 96.686 Q 147.196 96.891 146.096 97.048 L 146.096 97.048 L 146.096 97.048 Q 143.74 97.393 141.981 98.147 L 141.981 98.147 L 141.981 98.147 Q 140.222 98.901 139.248 100.173 L 139.248 100.173 L 139.248 100.173 Q 138.274 101.446 138.274 103.331 L 138.274 103.331 L 138.274 103.331 Q 138.274 106.064 140.269 107.493 L 140.269 107.493 L 140.269 107.493 Q 142.264 108.922 145.342 108.922 Z  M 192.464 117.247 L 179.082 117.247 L 179.082 68.995 L 192.056 68.995 L 192.056 77.414 L 192.558 77.414 L 192.558 77.414 Q 193.878 72.921 196.988 70.612 L 196.988 70.612 L 196.988 70.612 Q 200.098 68.303 204.15 68.303 L 204.15 68.303 L 204.15 68.303 Q 205.156 68.303 206.318 68.429 L 206.318 68.429 L 206.318 68.429 Q 207.48 68.555 208.36 68.775 L 208.36 68.775 L 208.36 80.649 L 208.36 80.649 Q 207.418 80.367 205.753 80.147 L 205.753 80.147 L 205.753 80.147 Q 204.088 79.927 202.705 79.927 L 202.705 79.927 L 202.705 79.927 Q 199.752 79.927 197.443 81.199 L 197.443 81.199 L 197.443 81.199 Q 195.134 82.471 193.799 84.733 L 193.799 84.733 L 193.799 84.733 Q 192.464 86.995 192.464 89.948 L 192.464 89.948 L 192.464 117.247 Z  M 236.225 93.247 L 227.366 103.362 L 227.397 87.309 L 229.345 87.309 L 244.801 68.995 L 260.163 68.995 L 239.398 93.247 L 236.225 93.247 Z  M 228.622 117.247 L 215.24 117.247 L 215.24 52.91 L 228.622 52.91 L 228.622 117.247 Z  M 261.074 117.247 L 245.398 117.247 L 231.198 96.231 L 240.12 86.775 L 261.074 117.247 Z  M 307.222 52.91 L 320.761 52.91 L 320.761 117.247 L 309.012 117.247 L 281.022 76.754 L 280.551 76.754 L 280.551 117.247 L 266.948 117.247 L 266.948 52.91 L 278.886 52.91 L 306.656 93.372 L 307.222 93.372 L 307.222 52.91 Z  M 353.527 118.19 L 353.527 118.19 L 353.527 118.19 Q 346.207 118.19 340.882 115.064 L 340.882 115.064 L 340.882 115.064 Q 335.558 111.938 332.667 106.331 L 332.667 106.331 L 332.667 106.331 Q 329.777 100.723 329.777 93.309 L 329.777 93.309 L 329.777 93.309 Q 329.777 85.833 332.667 80.225 L 332.667 80.225 L 332.667 80.225 Q 335.558 74.618 340.882 71.492 L 340.882 71.492 L 340.882 71.492 Q 346.207 68.366 353.527 68.366 L 353.527 68.366 L 353.527 68.366 Q 360.846 68.366 366.171 71.492 L 366.171 71.492 L 366.171 71.492 Q 371.496 74.618 374.386 80.225 L 374.386 80.225 L 374.386 80.225 Q 377.276 85.833 377.276 93.309 L 377.276 93.309 L 377.276 93.309 Q 377.276 100.723 374.386 106.331 L 374.386 106.331 L 374.386 106.331 Q 371.496 111.938 366.171 115.064 L 366.171 115.064 L 366.171 115.064 Q 360.846 118.19 353.527 118.19 Z  M 353.59 107.823 L 353.59 107.823 L 353.59 107.823 Q 356.919 107.823 359.15 105.922 L 359.15 105.922 L 359.15 105.922 Q 361.38 104.022 362.527 100.723 L 362.527 100.723 L 362.527 100.723 Q 363.674 97.425 363.674 93.215 L 363.674 93.215 L 363.674 93.215 Q 363.674 89.006 362.527 85.707 L 362.527 85.707 L 362.527 85.707 Q 361.38 82.409 359.15 80.492 L 359.15 80.492 L 359.15 80.492 Q 356.919 78.576 353.59 78.576 L 353.59 78.576 L 353.59 78.576 Q 350.228 78.576 347.951 80.492 L 347.951 80.492 L 347.951 80.492 Q 345.673 82.409 344.526 85.707 L 344.526 85.707 L 344.526 85.707 Q 343.38 89.006 343.38 93.215 L 343.38 93.215 L 343.38 93.215 Q 343.38 97.425 344.526 100.723 L 344.526 100.723 L 344.526 100.723 Q 345.673 104.022 347.951 105.922 L 347.951 105.922 L 347.951 105.922 Q 350.228 107.823 353.59 107.823 Z  M 408.471 117.247 L 394.334 117.247 L 381.203 68.995 L 394.743 68.995 L 402.219 101.414 L 402.659 101.414 L 410.45 68.995 L 423.738 68.995 L 431.655 101.226 L 432.063 101.226 L 439.414 68.995 L 452.922 68.995 L 439.823 117.247 L 425.655 117.247 L 417.361 86.901 L 416.764 86.901 L 408.471 117.247 Z " fill="rgb(255,255,255)"/></g></g></svg>